<?xml version="1.0" encoding="UTF-8" standalone="no"?>
<!-- Generator: Adobe Illustrator 14.0.0, SVG Export Plug-In . SVG Version: 6.00 Build 43363)  -->

<svg
   xmlns:dc="http://purl.org/dc/elements/1.1/"
   xmlns:cc="http://creativecommons.org/ns#"
   xmlns:rdf="http://www.w3.org/1999/02/22-rdf-syntax-ns#"
   xmlns:svg="http://www.w3.org/2000/svg"
   xmlns="http://www.w3.org/2000/svg"
   xmlns:sodipodi="http://sodipodi.sourceforge.net/DTD/sodipodi-0.dtd"
   xmlns:inkscape="http://www.inkscape.org/namespaces/inkscape"
   version="1.1"
   id="svg2"
   inkscape:version="0.48.0 r9654"
   sodipodi:docname="opengpx-logo-tiny.svg"
   sodipodi:version="0.32"
   inkscape:output_extension="org.inkscape.output.svg.inkscape"
   x="0px"
   y="0px"
   width="210px"
   height="210px"
   viewBox="0 0 210 210"
   xml:space="preserve"><metadata
   id="metadata4050"><rdf:RDF><cc:Work
       rdf:about=""><dc:format>image/svg+xml</dc:format><dc:type
         rdf:resource="http://purl.org/dc/dcmitype/StillImage" /><dc:title></dc:title></cc:Work></rdf:RDF></metadata>
<defs
   id="defs4028">
	
	
		<inkscape:perspective
   id="perspective10"
   inkscape:vp_y="0 : 1000 : 0"
   inkscape:vp_x="0 : 526.18109 : 1"
   sodipodi:type="inkscape:persp3d"
   inkscape:persp3d-origin="372.04724 : 350.78739 : 1"
   inkscape:vp_z="744.09448 : 526.18109 : 1">
		</inkscape:perspective>
	
		<inkscape:perspective
   id="perspective2477"
   inkscape:vp_y="0 : 1000 : 0"
   inkscape:vp_x="0 : 526.18109 : 1"
   sodipodi:type="inkscape:persp3d"
   inkscape:persp3d-origin="372.04724 : 350.78739 : 1"
   inkscape:vp_z="744.09448 : 526.18109 : 1">
		</inkscape:perspective>
</defs>
<sodipodi:namedview
   id="base"
   inkscape:window-y="0"
   inkscape:window-x="-8"
   inkscape:window-height="756"
   inkscape:window-width="1280"
   showgrid="false"
   inkscape:current-layer="layer1"
   inkscape:document-units="px"
   inkscape:cy="93.307111"
   inkscape:cx="95.09316"
   inkscape:zoom="2.8"
   inkscape:pageshadow="2"
   inkscape:pageopacity="0.0"
   objecttolerance="10"
   guidetolerance="10"
   gridtolerance="10000"
   borderopacity="1.0"
   bordercolor="#666666"
   pagecolor="#ffffff"
   inkscape:window-maximized="0">
	</sodipodi:namedview>
<g
   id="layer1"
   transform="translate(-279.73444,-339.18536)"
   inkscape:groupmode="layer"
   inkscape:label="Layer 1">
	<path
   id="text2385"
   d="M306.93,437.032c-0.403,3.057-1.625,5.543-3.664,7.459c-2.183,2.045-4.766,2.87-7.75,2.476   c-3.512-0.464-6.567-1.985-9.169-4.567c-2.927-2.897-4.144-6.221-3.648-9.969c0.476-3.604,1.658-6.196,3.548-7.775   c1.89-1.579,4.491-2.149,7.807-1.712c3.511,0.463,6.559,1.896,9.142,4.295C306.181,430.009,307.427,433.273,306.93,437.032   L306.93,437.032z M286.897,432.985c-0.305,2.303,0.551,4.423,2.564,6.359c1.883,1.814,4.095,2.889,6.636,3.224   c1.714,0.227,3.196-0.256,4.445-1.446c1.202-1.144,1.932-2.692,2.189-4.644c0.3-2.272-0.565-4.314-2.596-6.126   c-1.851-1.663-4.071-2.665-6.664-3.007c-2.168-0.286-3.74,0-4.715,0.859C287.829,429.026,287.209,430.62,286.897,432.985   L286.897,432.985z M311.926,415.816c-0.332,0.832-0.777,1.669-1.338,2.511l5.916,2.375c0.562,0.224,0.95,0.598,1.168,1.122   c0.217,0.524,0.21,1.077-0.021,1.657c-0.231,0.581-0.606,0.986-1.125,1.217c-0.518,0.23-1.058,0.234-1.619,0.01   c-0.454-0.181-2.255-0.911-5.401-2.188c-2.334-0.953-4.245-1.715-5.733-2.286c-2.102-0.805-3.928-1.455-5.479-1.95   c-2.139-0.685-3.12-0.992-2.946-0.922c-0.804-0.32-1.419-0.773-1.847-1.359c-0.482-0.675-0.583-1.365-0.302-2.071   c0.217-0.542,0.582-0.923,1.096-1.145c0.515-0.221,1.028-0.229,1.541-0.025l0.14,0.072c-0.109-0.795-0.123-1.555-0.042-2.279   c0.081-0.725,0.253-1.416,0.516-2.074c0.888-2.226,2.479-3.475,4.774-3.748c1.728-0.197,3.724,0.156,5.987,1.059   c2.119,0.845,3.634,2.15,4.545,3.915C312.736,411.603,312.794,413.639,311.926,415.816L311.926,415.816z M300.322,410.028   c-0.243,0.61-0.347,1.286-0.312,2.029c0.035,0.743,0.21,1.547,0.526,2.414c2.039,0.679,4.061,1.417,6.063,2.216   c0.624-0.749,1.107-1.554,1.451-2.416c0.397-0.997,0.349-1.902-0.146-2.716c-0.445-0.738-1.21-1.324-2.294-1.756   c-1.306-0.521-2.233-0.823-2.783-0.908C301.536,408.701,300.7,409.08,300.322,410.028L300.322,410.028z M320.047,400.18   c-1.289,2.13-2.853,3.564-4.688,4.303c-2.029,0.817-4.063,0.608-6.104-0.628c-2.254-1.365-3.802-3.112-4.644-5.242   c-0.93-2.366-0.718-4.667,0.637-6.903c0.938-1.55,1.968-2.687,3.088-3.41c1.474-0.946,2.906-0.998,4.296-0.156   c0.98,0.594,1.517,1.667,1.61,3.222c0.046,0.709-0.054,2.02-0.297,3.93l-0.736,5.71c0.722-0.147,1.383-0.454,1.981-0.919   c0.599-0.465,1.135-1.09,1.609-1.875c0.724-1.194,1.091-2.354,1.103-3.479c0.012-1.004,0.152-1.729,0.422-2.174   c0.561-0.926,1.292-1.117,2.191-0.572c1.016,0.615,1.394,1.861,1.135,3.737C321.428,397.297,320.894,398.782,320.047,400.18   L320.047,400.18z M308.481,393.67c-0.502,0.829-0.654,1.705-0.458,2.627c0.196,0.923,0.738,1.896,1.628,2.922   c0.173-1.271,0.348-2.536,0.524-3.792c0.185-1.532,0.262-2.795,0.229-3.788C309.706,392.031,309.064,392.707,308.481,393.67   L308.481,393.67z M333.662,382.804c-0.863,0.946-1.81,1.049-2.839,0.307c-0.892-0.616-1.786-1.234-2.685-1.857   c-0.952-0.657-1.801-1.326-2.547-2.007c-0.2-0.183-0.53-0.508-0.991-0.978c-0.46-0.469-0.79-0.795-0.99-0.978   c-0.054-0.049-0.184-0.182-0.389-0.397c-0.205-0.216-0.377-0.387-0.516-0.513c-0.639-0.583-1.109-0.708-1.411-0.377   c-0.646,0.708-0.865,1.78-0.66,3.215c0.206,1.436,0.769,2.925,1.688,4.469c0.239,0.247,0.547,0.59,0.921,1.03   c0.304,0.362,0.621,0.694,0.952,0.996c0.216,0.197,0.563,0.468,1.044,0.815s0.828,0.618,1.044,0.815   c0.438,0.4,0.663,0.884,0.675,1.451c0.011,0.567-0.193,1.082-0.615,1.543c-0.421,0.461-0.913,0.711-1.476,0.748   c-0.562,0.037-1.062-0.145-1.501-0.545c-0.216-0.197-0.562-0.47-1.039-0.821c-0.477-0.351-0.823-0.624-1.038-0.82   c-0.739-0.674-1.717-1.666-2.935-2.974s-2.195-2.299-2.935-2.974c-0.23-0.21-0.588-0.511-1.07-0.902   c-0.482-0.391-0.835-0.688-1.058-0.892c-0.432-0.393-0.645-0.874-0.642-1.442c0.004-0.568,0.213-1.079,0.627-1.533   c0.919-1.008,2.015-0.996,3.286,0.038l0.138,0.104c-0.106-2.155,0.409-3.856,1.547-5.103c1.327-1.455,2.851-1.904,4.572-1.349   c1.152,0.375,2.541,1.303,4.165,2.784l0.819,0.748c0.347,0.331,0.593,0.563,0.739,0.696c0.601,0.547,1.449,1.17,2.547,1.869   s1.942,1.317,2.535,1.858c0.431,0.393,0.648,0.874,0.651,1.441C334.281,381.839,334.076,382.349,333.662,382.804L333.662,382.804z    M346.899,360.358c1.112,2.983,1.285,5.843,0.516,8.58c-0.789,2.763-2.407,4.948-4.853,6.556c-2.315,1.522-4.454,2.052-6.416,1.59   c-1.961-0.462-3.746-1.916-5.354-4.362c-1.465-2.229-2.419-4.874-2.861-7.936s-0.279-5.887,0.489-8.474   c0.54-1.814,1.502-3.176,2.887-4.085c0.844-0.555,2.193-1.005,4.048-1.352c2.198-0.411,3.566-0.207,4.104,0.612   c0.31,0.47,0.407,1.007,0.293,1.612c-0.113,0.604-0.432,1.078-0.954,1.421c-0.261,0.172-0.999,0.305-2.215,0.399   c-1.215,0.095-2.192,0.385-2.933,0.872c-0.783,0.515-1.286,2.055-1.508,4.619c-0.328,3.731,0.449,7.028,2.332,9.892   c0.956,1.454,1.818,2.302,2.588,2.543c0.813,0.251,1.868-0.05,3.165-0.902c1.332-0.875,2.254-2.024,2.766-3.445   c0.545-1.504,0.57-3.191,0.076-5.061c-1.916,1.484-3.402,3.053-4.459,4.708c-0.19,0.299-0.42,0.538-0.689,0.715   c-0.54,0.355-1.12,0.449-1.74,0.284c-0.557-0.146-0.983-0.444-1.281-0.897c-0.875-1.332,0.088-3.299,2.891-5.901   c1.581-1.463,3.556-2.973,5.923-4.529c0.522-0.343,1.071-0.461,1.646-0.354c0.576,0.108,1.027,0.41,1.354,0.906   C347.13,359.003,347.192,359.666,346.899,360.358L346.899,360.358z M357.936,358.029c-0.175,0.029-0.611,0.067-1.312,0.112   c0.183,1.448,0.554,3.815,1.111,7.102c0.093,0.544-0.018,1.044-0.332,1.499c-0.313,0.455-0.763,0.732-1.348,0.832   c-0.586,0.1-1.104-0.013-1.556-0.338c-0.451-0.325-0.724-0.759-0.815-1.303l-0.73-4.298c-0.271-1.592-0.567-3.966-0.893-7.123   c-0.344-3.207-0.644-5.591-0.898-7.154c-0.443-2.672,0.09-4.078,1.598-4.218c0.334-0.152,0.805-0.303,1.413-0.454   s1.354-0.301,2.237-0.452c2.013-0.342,4.013-0.011,6.001,0.994c2.209,1.125,3.491,2.735,3.848,4.83   c0.446,2.629-0.241,4.896-2.062,6.801C362.581,356.537,360.494,357.595,357.936,358.029L357.936,358.029z M356.731,346.268   c-0.328,0.056-0.618,0.107-0.869,0.155c-0.251,0.048-0.462,0.097-0.633,0.147c0.082,0.482,0.2,1.208,0.354,2.174   c0.174,1.144,0.378,2.937,0.613,5.38c0.537-0.007,0.894-0.025,1.068-0.055c1.602-0.272,2.867-0.878,3.796-1.818   c0.992-1.003,1.374-2.172,1.147-3.507c-0.148-0.873-0.809-1.558-1.981-2.057C359.097,346.204,357.932,346.064,356.731,346.268   L356.731,346.268z M392.225,345.689c-1.415,1.537-2.511,2.822-3.287,3.854c-0.821,1.136-2.135,2.785-3.94,4.948   c1.055,1.548,2.108,3.102,3.163,4.661c1.245,1.813,2.369,3.317,3.37,4.509c0.374,0.447,0.555,0.921,0.542,1.421   c-0.016,0.583-0.25,1.083-0.703,1.498s-0.982,0.616-1.586,0.6c-1.031-0.026-2.35-1.248-3.954-3.665   c-0.431-0.699-1.097-1.737-1.999-3.115c-0.422-0.615-1.061-1.533-1.915-2.753c-1.317,1.415-2.988,3.154-5.01,5.217   c-0.644,0.692-1.633,1.699-2.969,3.019c-0.47,0.425-1.001,0.631-1.595,0.615c-0.604-0.015-1.125-0.24-1.562-0.673   c-0.438-0.433-0.648-0.941-0.633-1.524c0.013-0.5,0.206-0.953,0.582-1.36c0.651-0.65,1.625-1.631,2.92-2.942   c1.412-1.444,3.302-3.427,5.67-5.951c-1.019-1.36-2.093-2.721-3.226-4.084c-0.091-0.106-0.665-0.882-1.722-2.326   c-0.695-0.945-1.336-1.662-1.922-2.151c-0.587-0.489-0.872-1.057-0.855-1.702c0.014-0.552,0.237-1.043,0.671-1.476   c0.433-0.432,0.967-0.639,1.603-0.623c0.562,0.014,1.291,0.429,2.188,1.244c0.651,0.601,1.188,1.2,1.61,1.8   c0.423,0.6,1.052,1.462,1.888,2.588c0.971,1.161,1.904,2.336,2.802,3.526c1.355-1.695,2.707-3.39,4.053-5.085   c2.084-2.447,3.496-3.662,4.235-3.643c0.604,0.015,1.125,0.24,1.562,0.673s0.648,0.941,0.633,1.524   C392.826,344.803,392.622,345.261,392.225,345.689L392.225,345.689z" />
	<path
   id="path2648"
   stroke="#000000"
   d="M390.354,526.193c-3.41-0.229-5.359-0.451-8.14-0.932   c-5.476-0.945-10.124-2.254-18.108-5.099c-9.399-3.349-17.211-7.63-24.318-13.329c-2.853-2.287-6.429-5.65-8.758-8.234   c-4.743-5.264-8.493-10.787-11.84-17.443c-1.847-3.671-2.791-5.916-3.927-9.338c-1.654-4.98-2.621-9.787-3.106-15.447   c-0.182-2.112-0.207-7.972-0.045-10.068c0.685-8.819,2.541-16.736,5.916-25.231c5.016-12.626,12.645-24.446,22.851-35.404   c3.138-3.368,5.2-5.084,8.479-7.054c6.485-3.896,13.707-5.784,24.517-6.409c4.261-0.247,20.278-0.158,23.924,0.132   c10.452,0.832,19.283,3.222,28.142,7.615c2.078,1.031,3.301,1.706,6.626,3.655c0.71,0.416,2.666,1.513,4.346,2.437   c3.502,1.926,4.97,2.76,6.67,3.79c6.928,4.199,10.508,8.179,11.703,13.011c0.513,2.074,0.581,3.367,0.222,4.18   c-0.459,1.038-1.26,1.75-2.803,2.491c-0.912,0.438-1.281,0.579-4.303,1.641c-1.351,0.474-2.754,1.097-3.448,1.53l-0.351,0.218   l-0.769-1.264c-3.933-6.468-8.05-11.379-12.257-14.617c-0.746-0.574-11.047-6.04-16.266-8.63   c-13.477-6.69-22.804-9.765-32.83-10.821c-2.109-0.222-7.831-0.224-9.854-0.002c-5.704,0.624-10.604,1.921-15.862,4.199   c-12.423,5.383-22.902,15.933-29.639,29.837c-4.67,9.64-7.368,20.118-8.125,31.557c-0.229,3.453-0.126,9.192,0.232,12.952   c0.572,6.024,2.018,12.922,3.532,16.861c3.729,9.701,7.536,16.203,12.25,20.924c2.372,2.374,2.686,2.605,8.954,6.599   c8.509,5.421,11.315,7.154,14.802,9.142c9.736,5.549,17.871,8.703,26.506,10.279c5.637,1.029,13.855,1.029,20.998,0.001   c4.296-0.618,9.775-1.847,12.254-2.745c10.312-3.744,19.397-11.055,26.095-21.001c8.156-12.11,12.618-28.068,12.309-44.019   c-0.072-3.738-0.303-6.697-0.794-10.189c-0.211-1.5-0.784-4.787-0.846-4.848c-0.016-0.017-0.722,0.048-1.568,0.144   c-4.866,0.549-9.021,0.73-19.911,0.866c-8.979,0.112-12.468,0.231-16.652,0.566c-7.828,0.627-14.483,2.023-19.907,4.176   c-1.587,0.629-3.802,1.637-3.802,1.729c0,0.345,1.093,2.587,2.849,5.847c1.513,2.807,3.198,6.129,4.032,7.949   c4.289,9.354,6.917,18.852,7.915,28.613c0.1,0.971,0.263,2.105,0.363,2.521c0.267,1.109,0.16,1.629-0.5,2.445   c-0.541,0.668-2.366,1.736-4.833,2.83l-0.458,0.203l-0.935-1.913c-2.429-4.976-3.854-9.612-6.154-20.028   c-1.7-7.696-2.313-10.187-3.357-13.64c-1.384-4.573-3.075-8.544-5.08-11.921c-0.743-1.253-0.723-1.236-1.41-1.177   c-2.378,0.205-10.991,3.403-20.113,7.47c-4.569,2.037-4.36,1.911-9.882,5.932c-5.277,3.842-7.019,4.971-9.642,6.251   c-2.568,1.253-4.871,1.893-7.141,1.983c-1.171,0.047-1.219,0.042-1.642-0.173c-0.557-0.282-1.278-1.062-1.826-1.972   c-0.236-0.393-0.901-1.662-1.478-2.822c-1.321-2.656-1.641-3.189-2.582-4.315l-0.262-0.313l0.969-0.627   c3.164-2.045,7.061-3.965,11.21-5.523c4.784-1.797,10.027-3.262,18.416-5.143c11.083-2.484,14.46-3.33,18.847-4.721   c1.787-0.566,4.264-1.443,4.366-1.546c0.146-0.146-2.053-5.853-3.635-9.437c-0.438-0.994-1.746-3.86-2.905-6.369   c-2.564-5.551-3.5-7.661-4.541-10.241c-2.246-5.571-3.546-9.972-4.347-14.719c-0.276-1.64-0.66-5-0.58-5.079   c0.027-0.027,0.256,0.011,0.508,0.086c1.086,0.322,2.297,0.267,4.792-0.221c1.423-0.278,2.713-0.396,3.24-0.297   c0.391,0.073,0.955,0.569,1.067,0.938c0.046,0.15,0.109,0.467,0.141,0.704c0.032,0.237,0.189,0.996,0.351,1.687   c0.843,3.604,1.357,6.294,2.57,13.417c1.055,6.199,1.366,7.878,1.946,10.499c1.077,4.865,2.446,9.077,4.176,12.846   c0.826,1.798,2.309,4.538,2.457,4.538c0.043,0,0.727-0.274,1.519-0.61c13.182-5.584,28.557-9.722,47.273-12.722   c6.231-0.999,18.952-2.687,19.096-2.534c0.094,0.101,1.065,2.957,1.75,5.151c2.799,8.958,4.451,17.562,5.007,26.071   c0.15,2.314,0.176,9.161,0.041,11.28c-0.346,5.428-1.104,10.444-2.318,15.339c-1.7,6.852-6.521,15.722-12.466,22.935   c-3.501,4.248-8.387,9.01-12.084,11.775c-3.775,2.825-8.056,4.945-12.914,6.396c-5.344,1.596-10.109,2.322-21.188,3.232   c-2.319,0.189-4.759,0.403-5.421,0.474c-2.075,0.22-3.716,0.3-5.853,0.286C391.671,526.226,390.567,526.209,390.354,526.193z" />
	<path
   id="text2674"
   d="M456.669,376.399c-0.297,0.125-0.725,0.337-1.283,0.637l-4.13,2.684c-1.567,0.993-2.977,1.833-4.228,2.523   l-2.473,1.194l-1.131,0.625c-0.432,0.205-0.812,0.192-1.141-0.037c-0.229-0.16-0.378-0.391-0.447-0.692   c-0.068-0.301-0.015-0.579,0.161-0.831c0.14-0.199,0.853-0.632,2.139-1.297l2.468-1.224c-0.104-2.09-0.037-3.635,0.197-4.633   c0.199-0.848,0.314-1.951,0.347-3.309c0.041-1.858,0.08-2.971,0.118-3.338c0.022-0.22,0.09-0.409,0.2-0.568   c0.177-0.252,0.418-0.4,0.724-0.444s0.576,0.016,0.811,0.18c0.288,0.201,0.433,0.507,0.434,0.918l-0.059,1.584   c-0.022,1.356-0.051,2.271-0.085,2.746c-0.064,1.03-0.188,1.939-0.372,2.728c-0.147,0.623-0.199,1.578-0.156,2.867l5.45-3.504   c0.513-0.245,1.267-0.648,2.262-1.21c0.443-0.285,0.855-0.293,1.237-0.027c0.235,0.164,0.388,0.393,0.457,0.687   c0.07,0.294,0.016,0.57-0.165,0.828C457.815,375.754,457.37,376.059,456.669,376.399L456.669,376.399z M453.096,393.114   c-0.794-0.905-1.142-1.976-1.045-3.213c0.105-1.378,0.77-2.636,1.991-3.774c1.188-1.099,2.529-1.731,4.022-1.897   c1.754-0.205,3.222,0.367,4.401,1.713c0.944,1.077,1.166,2.325,0.667,3.744c-0.41,1.14-1.182,2.193-2.316,3.159   c-1.21,1.032-2.504,1.614-3.883,1.747C455.371,394.743,454.091,394.25,453.096,393.114L453.096,393.114z M460.734,387.276   c-0.689-0.796-1.606-1.083-2.753-0.859c-0.915,0.184-1.764,0.617-2.544,1.302c-0.781,0.685-1.203,1.431-1.267,2.239   c-0.05,0.671,0.136,1.247,0.556,1.726c0.491,0.561,1.118,0.863,1.882,0.908c0.854,0.061,1.678-0.232,2.471-0.88   C461.229,389.96,461.781,388.481,460.734,387.276L460.734,387.276z M466.179,405.791c-0.501,0.124-1.251,0.314-2.25,0.569   c-0.999,0.255-1.749,0.445-2.249,0.569c-0.153,0.038-0.383,0.108-0.689,0.209c-0.307,0.102-0.537,0.172-0.689,0.21   c-0.299,0.074-0.569,0.034-0.811-0.12c-0.241-0.154-0.397-0.377-0.47-0.669c-0.133-0.535,0.112-0.958,0.736-1.267   c-0.667-0.757-1.141-1.702-1.422-2.835c-0.226-0.911-0.211-1.715,0.044-2.413c0.281-0.771,0.834-1.324,1.658-1.662   c1.774-0.728,3.381-1.27,4.82-1.626c0.952-0.236,2.062-0.401,3.33-0.494c0.629-0.053,1.014,0.203,1.153,0.766   c0.074,0.299,0.04,0.573-0.101,0.822c-0.142,0.249-0.361,0.411-0.66,0.484c-0.32,0.08-0.844,0.156-1.57,0.229   c-0.728,0.073-1.274,0.156-1.644,0.247c-1.16,0.288-2.146,0.572-2.953,0.854c-0.809,0.282-1.443,0.561-1.906,0.838   c-0.068,0.26-0.108,0.51-0.119,0.749s0.011,0.466,0.064,0.681c0.23,0.932,0.624,1.878,1.18,2.84l2.114-0.535l2.018-0.522   c1.501-0.372,2.82-0.629,3.959-0.771c0.658-0.082,1.062,0.176,1.21,0.773c0.073,0.299,0.038,0.573-0.106,0.823   c-0.145,0.25-0.364,0.404-0.66,0.462L466.179,405.791z M463.594,428.18c-0.156-0.64,0.529-1.397,2.055-2.271   c0.582-0.334,1.622-0.828,3.121-1.482c-0.271-0.686-0.672-1.572-1.202-2.659l-1.253-2.635c-0.996-0.125-2.474-0.394-4.433-0.807   c-0.444-0.127-0.713-0.382-0.807-0.765c-0.068-0.278-0.028-0.551,0.12-0.82s0.372-0.439,0.671-0.513   c0.334-0.082,1.732,0.133,4.194,0.645c0.151-0.162,0.346-0.272,0.583-0.33c0.563-0.138,1.008,0.114,1.335,0.757   c1.683,0.429,3.639,1.012,5.868,1.75c3.04,1.004,4.609,1.708,4.708,2.111c0.134,0.549-0.156,1.019-0.872,1.408l-3.346,1.514   l-6.872,3.328l-1.504,0.998c-0.514,0.339-0.864,0.532-1.053,0.578c-0.299,0.073-0.576,0.026-0.83-0.14   C463.823,428.681,463.662,428.459,463.594,428.18L463.594,428.18z M474.621,421.581l-5.54-1.809   c0.421,0.789,0.994,2.002,1.719,3.638L474.621,421.581z M474.97,438.24c-0.88,0.171-1.401-0.065-1.565-0.711   c-0.151-0.597,0.116-0.983,0.804-1.157c0.132-0.033,0.372-0.105,0.721-0.216l0.867-0.253c-0.41-1.063-0.942-1.863-1.595-2.399   c-0.608-0.503-1.419-0.844-2.433-1.023l-5.7,1.468c-0.701,0.178-1.139-0.077-1.313-0.764c-0.154-0.611,0.118-1.005,0.819-1.183   l7.31-1.854c0.229-0.058,0.575-0.137,1.037-0.236c0.463-0.099,0.809-0.177,1.038-0.235c0.701-0.178,1.129,0.039,1.284,0.649   c0.172,0.681-0.316,1.17-1.467,1.47c1.622,1.007,2.639,2.322,3.051,3.947c0.143,0.562,0.038,1.036-0.315,1.421   c-0.353,0.385-0.956,0.686-1.811,0.903C475.341,438.157,475.096,438.215,474.97,438.24L474.97,438.24z M468.096,447.38   c-0.255-1.599-0.062-2.956,0.579-4.074c0.711-1.223,1.862-1.962,3.453-2.216c1.839-0.293,3.451-0.094,4.839,0.598   c1.512,0.752,2.397,1.938,2.656,3.558c0.188,1.174,0.143,2.164-0.135,2.969c-0.343,0.99-1.02,1.566-2.03,1.729   c-0.708,0.112-1.415-0.185-2.122-0.891c-0.312-0.313-0.827-1-1.548-2.06l-2.566-3.746c-0.524,0.49-0.888,1.054-1.09,1.692   c-0.203,0.638-0.241,1.35-0.116,2.134c0.078,0.488,0.262,1.046,0.55,1.675c0.367,0.797,0.759,1.285,1.176,1.466   c0.416,0.18,0.646,0.407,0.69,0.684c0.04,0.247-0.019,0.483-0.175,0.708s-0.358,0.356-0.605,0.396   c-0.785,0.126-1.562-0.399-2.33-1.575C468.669,449.421,468.261,448.405,468.096,447.38L468.096,447.38z M477.715,445.551   c-0.138-0.863-0.587-1.527-1.347-1.994c-0.76-0.466-1.834-0.733-3.223-0.802l2.068,3.009c0.827,1.181,1.514,2.007,2.061,2.478   C477.743,447.544,477.889,446.646,477.715,445.551L477.715,445.551z M482.468,474.773c0.03-0.528,0.119-1.342,0.269-2.438   c0.14-1.068,0.222-1.881,0.247-2.439l0.043-0.761c-0.987-0.035-2.595-0.03-4.821,0.015c-2.075,0.039-3.685,0.025-4.828-0.039   c-0.251-0.015-0.631-0.012-1.142,0.01s-0.895,0.023-1.151,0.01c-0.486-0.028-0.9-0.131-1.241-0.309   c-0.461-0.227-0.679-0.551-0.655-0.973c0.017-0.287,0.132-0.538,0.345-0.756c0.213-0.217,0.478-0.316,0.792-0.299   c0.107,0.006,0.267,0.033,0.479,0.082c0.212,0.047,0.372,0.074,0.479,0.08c0.351,0.021,0.877,0.027,1.58,0.021   c0.704-0.007,1.234,0,1.592,0.021c1.022,0.059,2.464,0.059,4.325,0c2.012-0.058,3.454-0.071,4.328-0.043l0.045-0.977   c0.09-1.565,0.274-2.789,0.554-3.669c0.184-0.571,0.554-0.841,1.112-0.809c0.293,0.017,0.545,0.125,0.756,0.322   c0.238,0.229,0.337,0.512,0.296,0.846c-0.028,0.25-0.126,0.818-0.291,1.705c-0.127,0.711-0.203,1.287-0.229,1.73   c-0.024,0.429-0.053,1.08-0.085,1.953c-0.031,0.873-0.06,1.524-0.084,1.953c-0.032,0.551-0.118,1.365-0.259,2.444   s-0.227,1.894-0.258,2.444c-0.018,0.307-0.138,0.559-0.36,0.754s-0.491,0.283-0.807,0.266c-0.307-0.018-0.561-0.137-0.76-0.355   C482.541,475.345,482.45,475.082,482.468,474.773L482.468,474.773z M466.472,484.474c0.119-0.494,0.462-0.754,1.027-0.779   c0.61-0.021,1.456,0.027,2.539,0.149c1.04,0.118,1.884,0.255,2.531,0.412c0.181,0.044,0.453,0.118,0.818,0.226   c0.364,0.105,0.638,0.182,0.818,0.225c1.309,0.316,2.042,0.146,2.2-0.508c0.214-0.883,0.004-1.771-0.628-2.66   c-0.325-0.453-0.991-1.131-1.997-2.029c-2.652-0.641-4.195-1.131-4.629-1.471c-0.384-0.299-0.526-0.654-0.428-1.064   c0.069-0.286,0.228-0.514,0.475-0.682c0.246-0.169,0.51-0.22,0.788-0.152c0.097,0.023,0.243,0.092,0.437,0.205   c0.16,0.098,0.659,0.259,1.497,0.482l1.537,0.404l7.668,1.885c0.852,0.258,1.427,0.422,1.726,0.494   c0.355,0.086,0.699,0.135,1.032,0.145c0.332,0.011,0.669,0.057,1.011,0.14c0.292,0.07,0.51,0.229,0.652,0.478   s0.179,0.519,0.108,0.811c-0.139,0.571-0.525,0.832-1.161,0.781c-0.702-0.052-1.325-0.144-1.868-0.274   c-0.73-0.177-1.487-0.386-2.269-0.626c-0.749-0.225-1.507-0.426-2.274-0.604l-0.922-0.212c0.628,0.756,1.054,1.505,1.275,2.247   c0.223,0.743,0.245,1.479,0.068,2.211c-0.278,1.155-0.847,1.857-1.702,2.107c-0.604,0.18-1.536,0.139-2.8-0.123l-2.015-0.398   l-2.222-0.314c-0.838-0.1-1.584-0.154-2.237-0.165c-0.125-0.001-0.229-0.011-0.312-0.031c-0.285-0.069-0.499-0.231-0.64-0.486   C466.436,485.041,466.401,484.767,466.472,484.474L466.472,484.474z M462.7,492.285c0.695-1.462,1.623-2.472,2.785-3.029   c1.278-0.605,2.646-0.562,4.101,0.131c1.682,0.799,2.897,1.877,3.648,3.232c0.82,1.477,0.879,2.956,0.175,4.438   c-0.511,1.073-1.108,1.863-1.794,2.37c-0.843,0.622-1.727,0.714-2.651,0.273c-0.647-0.308-1.062-0.952-1.244-1.936   c-0.079-0.435-0.115-1.292-0.109-2.573l0.007-4.541c-0.709,0.107-1.328,0.365-1.856,0.776s-0.963,0.976-1.305,1.693   c-0.212,0.446-0.377,1.011-0.495,1.691c-0.149,0.864-0.104,1.489,0.138,1.874c0.242,0.385,0.303,0.703,0.183,0.955   c-0.107,0.227-0.289,0.387-0.546,0.484c-0.256,0.096-0.497,0.09-0.723-0.018c-0.718-0.342-1.061-1.214-1.027-2.617   C462.015,494.291,462.254,493.222,462.7,492.285L462.7,492.285z M471.662,496.225c0.376-0.789,0.382-1.591,0.021-2.405   c-0.362-0.814-1.097-1.643-2.202-2.486v3.652c0.013,1.441,0.11,2.51,0.294,3.209C470.556,497.885,471.185,497.228,471.662,496.225   L471.662,496.225z M458.392,506.291c0.218,0.209,0.318,0.454,0.304,0.738c-0.016,0.283-0.133,0.533-0.351,0.751   c-0.248,0.248-0.607,0.324-1.078,0.228c-0.644-0.127-1.135-0.158-1.474-0.092c-0.714,0.146-1.481,0.629-2.303,1.449   c-0.785,0.785-1.345,1.684-1.68,2.695c-0.427,1.297-0.252,2.332,0.522,3.107c0.638,0.639,1.503,0.781,2.598,0.427   c0.932-0.293,1.861-0.878,2.788-1.753c0.831-0.77,1.688-1.275,2.568-1.518c1.13-0.309,2.076-0.08,2.841,0.686   c0.9,0.901,1.211,2.236,0.932,4.003c-0.274,1.681-0.934,3.043-1.978,4.085c-0.491,0.491-1.129,0.962-1.914,1.412   c-1.039,0.602-1.728,0.733-2.066,0.395c-0.445-0.446-0.44-0.896,0.016-1.353c0.203-0.202,0.611-0.503,1.228-0.899   c0.615-0.397,1.06-0.738,1.333-1.021c0.78-0.799,1.257-1.665,1.43-2.597c0.178-0.957-0.012-1.714-0.568-2.271   c-0.42-0.421-1.091-0.343-2.013,0.234c-0.345,0.213-0.945,0.69-1.802,1.435c-1.246,1.073-2.518,1.614-3.813,1.623   c-1.186,0.01-2.2-0.408-3.045-1.254c-1.205-1.207-1.609-2.726-1.213-4.559c0.345-1.59,1.156-3.022,2.433-4.298   c0.927-0.927,1.953-1.597,3.077-2.011C456.542,505.428,457.618,505.547,458.392,506.291L458.392,506.291z M441.11,517.613   c1.259-1.018,2.532-1.527,3.82-1.529c1.415,0.008,2.629,0.638,3.643,1.891c1.171,1.447,1.802,2.945,1.893,4.492   c0.102,1.687-0.484,3.045-1.76,4.076c-0.925,0.748-1.806,1.202-2.642,1.363c-1.029,0.196-1.866-0.104-2.51-0.899   c-0.45-0.558-0.546-1.318-0.286-2.284c0.116-0.426,0.455-1.215,1.015-2.367l1.968-4.092c-0.686-0.21-1.355-0.244-2.01-0.102   c-0.653,0.142-1.29,0.463-1.908,0.963c-0.384,0.311-0.776,0.748-1.177,1.311c-0.509,0.716-0.737,1.299-0.686,1.75   s-0.031,0.764-0.248,0.939c-0.195,0.158-0.429,0.225-0.701,0.201s-0.488-0.133-0.646-0.328c-0.5-0.617-0.432-1.553,0.205-2.805   C439.627,519.126,440.304,518.265,441.11,517.613L441.11,517.613z M447.49,525.039c0.679-0.549,1.031-1.27,1.057-2.16   s-0.278-1.955-0.911-3.193l-1.578,3.293c-0.611,1.305-0.985,2.312-1.121,3.021C445.775,526.057,446.627,525.738,447.49,525.039   L447.49,525.039z M427.82,525.027c0.124-0.057,0.414-0.015,0.869,0.125c0.415,0.135,0.741,0.275,0.979,0.419   c0.473-0.622,0.909-1.128,1.308-1.516s0.757-0.654,1.077-0.799c1.527-0.689,2.834-0.761,3.922-0.215   c1.024,0.511,1.914,1.603,2.669,3.273c0.713,1.579,0.779,3.177,0.199,4.79c-0.579,1.613-1.623,2.76-3.131,3.44   c-0.568,0.257-1.271,0.397-2.108,0.421c-1.053,0.036-1.695-0.204-1.928-0.72c-0.08-0.177-0.085-0.362-0.017-0.559   c-0.047-0.277-0.181-0.708-0.4-1.292c-0.221-0.584-0.528-1.322-0.923-2.213c-0.358-0.812-0.703-1.426-1.032-1.844   c-0.195-0.257-0.66-0.738-1.396-1.443c-0.099-0.098-0.252-0.236-0.459-0.418l-0.134-0.14c-0.118-0.261-0.124-0.519-0.018-0.771   C427.404,525.316,427.578,525.136,427.82,525.027L427.82,525.027z M432.929,530.912c0.127,0.28,0.246,0.594,0.359,0.939   s0.218,0.721,0.313,1.125c0.298,0.016,0.546,0.014,0.746-0.006c0.199-0.02,0.351-0.053,0.455-0.1   c1.012-0.457,1.698-1.264,2.061-2.422c0.361-1.156,0.299-2.273-0.188-3.351c-0.483-1.071-1.035-1.788-1.655-2.152   s-1.309-0.376-2.066-0.034c-0.626,0.283-1.106,0.638-1.44,1.064c-0.18,0.229-0.397,0.627-0.653,1.189   C431.85,528.802,432.54,530.051,432.929,530.912L432.929,530.912z M419.107,536.166c-0.165-0.881,0.076-1.401,0.724-1.561   c0.598-0.146,0.981,0.125,1.15,0.812c0.032,0.133,0.103,0.373,0.21,0.723l0.247,0.869c1.066-0.402,1.87-0.928,2.411-1.576   c0.508-0.604,0.855-1.412,1.042-2.424l-1.424-5.712c-0.172-0.702,0.086-1.138,0.774-1.308c0.612-0.149,1.004,0.127,1.177,0.829   l1.797,7.323c0.057,0.23,0.133,0.576,0.228,1.039c0.096,0.464,0.172,0.811,0.228,1.039c0.173,0.703-0.047,1.129-0.659,1.279   c-0.682,0.168-1.168-0.325-1.458-1.479c-1.02,1.615-2.343,2.622-3.971,3.021c-0.563,0.139-1.036,0.029-1.418-0.326   c-0.383-0.356-0.679-0.963-0.889-1.818C419.187,536.537,419.131,536.293,419.107,536.166L419.107,536.166z M410.112,528.733   c1.455-0.192,2.728,0.086,3.816,0.837c1.146,0.787,1.817,1.938,2.019,3.449c0.19,1.441-0.091,2.992-0.846,4.652   c-0.839,1.846-1.926,2.857-3.261,3.033c-0.695,0.093-1.495,0.033-2.397-0.18c-1.142-0.275-1.752-0.714-1.832-1.317   c-0.036-0.271,0.021-0.521,0.171-0.755c0.149-0.232,0.355-0.366,0.618-0.4c0.206-0.027,0.394,0.01,0.562,0.114   s0.333,0.207,0.491,0.309c0.463,0.278,1.17,0.354,2.121,0.228c0.725-0.096,1.355-0.836,1.895-2.223   c0.488-1.271,0.676-2.34,0.561-3.206c-0.124-0.938-0.542-1.634-1.252-2.088c-0.663-0.425-1.464-0.575-2.4-0.451   c-0.427,0.057-0.865,0.23-1.318,0.521l-1.147,0.824c-0.198,0.142-0.343,0.219-0.436,0.231c-0.263,0.035-0.504-0.04-0.723-0.225   c-0.22-0.184-0.348-0.41-0.384-0.68c-0.068-0.519,0.412-1.092,1.441-1.72C408.713,529.136,409.48,528.817,410.112,528.733   L410.112,528.733z M394.781,529.868c0.509-0.022,0.853,0.235,1.034,0.772c0.19,0.579,0.377,1.406,0.56,2.48   c0.174,1.031,0.275,1.881,0.305,2.545c0.008,0.187,0.012,0.47,0.011,0.85c-0.002,0.38,0.002,0.663,0.01,0.85   c0.059,1.345,0.424,2.002,1.097,1.973c0.909-0.039,1.703-0.486,2.383-1.34c0.346-0.438,0.812-1.266,1.396-2.48   c-0.119-2.727-0.074-4.344,0.133-4.855c0.181-0.452,0.482-0.688,0.904-0.706c0.293-0.013,0.556,0.076,0.786,0.267   c0.23,0.191,0.352,0.43,0.364,0.716c0.004,0.101-0.021,0.259-0.076,0.476c-0.049,0.182-0.065,0.706-0.05,1.572l0.037,1.59   l0.312,7.89c-0.012,0.89-0.011,1.487,0.003,1.796c0.016,0.364,0.065,0.708,0.147,1.031c0.082,0.322,0.131,0.658,0.146,1.01   c0.014,0.3-0.079,0.553-0.278,0.759s-0.448,0.315-0.749,0.329c-0.587,0.025-0.944-0.275-1.071-0.9   c-0.145-0.688-0.229-1.312-0.254-1.87c-0.033-0.751-0.042-1.536-0.027-2.354c0.009-0.782-0.008-1.565-0.049-2.353l-0.052-0.944   c-0.553,0.812-1.155,1.429-1.807,1.848c-0.652,0.419-1.354,0.646-2.104,0.678c-1.188,0.052-2.021-0.299-2.498-1.052   c-0.339-0.53-0.558-1.438-0.656-2.725l-0.176-2.046l-0.312-2.223c-0.137-0.833-0.291-1.564-0.462-2.194   c-0.033-0.121-0.053-0.225-0.057-0.311c-0.013-0.293,0.084-0.543,0.29-0.748C394.227,529.99,394.481,529.881,394.781,529.868   L394.781,529.868z M372.189,543.378c0.1,0.013,0.207,0.046,0.323,0.097c1.154,0.501,2.289,0.825,3.403,0.974   c0.582,0.077,1.225,0.108,1.928,0.094c0.702-0.015,1.466-0.079,2.29-0.193c-0.002-0.47,0.015-0.844,0.052-1.12   c0.132-0.987,0.372-2.335,0.723-4.044l-4.724-0.173c-1.389-0.041-2.239-0.082-2.552-0.123c-0.312-0.042-0.562-0.176-0.749-0.403   s-0.257-0.507-0.213-0.841c0.086-0.646,0.461-0.965,1.124-0.956l2.564,0.114l4.979,0.207c0.096-0.5,0.183-0.975,0.26-1.424   c0.078-0.447,0.143-0.867,0.195-1.258c0.208-1.568,0.218-2.507,0.027-2.814c-0.144-0.221-0.688-0.395-1.632-0.52   c-0.44-0.059-1.104-0.135-1.991-0.228s-1.555-0.169-2.001-0.229c-0.143-0.019-0.354-0.023-0.638-0.015   c-0.283,0.01-0.492,0.006-0.627-0.013c-0.753-0.101-1.08-0.519-0.981-1.257c0.079-0.597,0.429-0.915,1.048-0.955   c0.686-0.047,2.14,0.078,4.361,0.374c2.2,0.292,3.574,0.771,4.122,1.437c0.597,0.723,0.744,2.224,0.44,4.502   c-0.06,0.455-0.137,0.95-0.229,1.486c-0.094,0.537-0.199,1.115-0.318,1.735c0.057,0.174,0.072,0.353,0.048,0.538   c-0.032,0.24-0.128,0.448-0.288,0.622c-0.415,2.032-0.688,3.538-0.818,4.519c-0.035,0.263-0.051,0.652-0.047,1.17   c0.003,0.517-0.013,0.906-0.048,1.169c-0.112,0.845-0.523,1.22-1.233,1.126c-0.298-0.04-0.54-0.178-0.726-0.411   c-0.882,0.114-1.709,0.177-2.479,0.19c-0.771,0.013-1.49-0.025-2.158-0.114c-1.725-0.229-3.074-0.618-4.049-1.167   c-0.45-0.256-0.643-0.628-0.578-1.117c0.038-0.284,0.164-0.523,0.378-0.72C371.613,543.424,371.885,543.338,372.189,543.378   L372.189,543.378z M363.379,524.805c0.583,0.197,0.805,0.627,0.664,1.29l-0.469,2.325c-0.173,0.826-0.376,1.584-0.61,2.277   c-0.063,0.189-0.185,0.508-0.361,0.954c-0.178,0.446-0.299,0.765-0.362,0.955c-0.495,1.466-0.472,2.29,0.071,2.474   c0.76,0.256,1.639,0.051,2.635-0.619c0.902-0.609,1.741-1.482,2.518-2.619c0.104-0.26,0.246-0.582,0.429-0.966   c0.155-0.325,0.287-0.647,0.395-0.967c0.068-0.203,0.151-0.516,0.248-0.937s0.18-0.732,0.249-0.937   c0.103-0.306,0.279-0.521,0.53-0.648s0.522-0.142,0.813-0.042c0.299,0.1,0.508,0.276,0.627,0.528s0.127,0.53,0.023,0.836   c-0.068,0.204-0.149,0.517-0.243,0.938c-0.093,0.422-0.175,0.734-0.243,0.938c-0.236,0.699-0.612,1.651-1.129,2.856   s-0.893,2.157-1.129,2.855c-0.073,0.218-0.171,0.544-0.291,0.979c-0.121,0.436-0.218,0.762-0.291,0.979   c-0.099,0.291-0.276,0.498-0.532,0.619c-0.257,0.121-0.527,0.135-0.812,0.038c-0.624-0.211-0.817-0.768-0.581-1.671l0.372-1.201   c-1.653,1.135-3.08,1.5-4.281,1.094c-1.086-0.366-1.681-1.1-1.785-2.201c-0.076-0.736,0.083-1.732,0.478-2.99l0.348-1.028   l0.329-0.943c0.19-0.563,0.363-1.315,0.519-2.257c0.156-0.941,0.327-1.69,0.516-2.246c0.101-0.299,0.279-0.509,0.536-0.631   C362.812,524.717,363.087,524.706,363.379,524.805L363.379,524.805z M350.098,524.776l1.759-3.161   c0.648-1.277,1.28-2.275,1.894-2.991c0.785-0.913,1.616-1.468,2.492-1.665c1.062-0.237,2.327-0.01,3.799,0.682   c0.861,0.406,1.557,0.804,2.085,1.194c0.741,0.546,0.99,1.075,0.75,1.587c-0.271,0.577-0.688,0.732-1.253,0.468   c-0.233-0.11-0.596-0.349-1.086-0.719c-0.491-0.369-1.07-0.703-1.737-1.001c-1.254-0.565-2.396-0.367-3.427,0.598   c-0.683,0.644-1.419,1.781-2.21,3.412c0.655-0.484,1.3-0.774,1.935-0.871c0.636-0.098,1.265,0,1.887,0.293   c1.173,0.552,1.938,1.4,2.298,2.547s0.239,2.357-0.361,3.635c-0.823,1.75-1.988,2.923-3.495,3.52   c-1.555,0.614-3.227,0.501-5.016-0.34c-0.603-0.283-1.071-0.6-1.407-0.946c-0.335-0.348-0.536-0.728-0.604-1.14   c-0.685-0.345-0.85-0.894-0.496-1.645c0.216-0.461,0.573-1.045,1.072-1.752C349.546,525.656,349.92,525.088,350.098,524.776   L350.098,524.776z M351.239,530.453c1.231,0.579,2.384,0.603,3.457,0.07c0.963-0.481,1.721-1.312,2.275-2.491   c0.442-0.939,0.596-1.729,0.462-2.37s-0.558-1.129-1.271-1.465c-0.654-0.307-1.463-0.236-2.426,0.213   c-0.878,0.418-1.512,0.943-1.903,1.574c-0.466,0.636-1.128,1.666-1.987,3.09c0.165,0.322,0.363,0.598,0.597,0.826   C350.676,530.129,350.941,530.312,351.239,530.453L351.239,530.453z M340.767,529.675c0.293,0.179,0.482,0.438,0.569,0.776   c0.087,0.339,0.041,0.654-0.139,0.947c-0.179,0.294-0.438,0.479-0.779,0.557c-0.341,0.076-0.658,0.025-0.951-0.154   c-0.294-0.18-0.482-0.438-0.566-0.773c-0.084-0.337-0.036-0.652,0.144-0.945s0.438-0.479,0.775-0.559   C340.158,529.445,340.473,529.496,340.767,529.675L340.767,529.675z M344.904,521.98c0.224-0.367,0.548-0.922,0.974-1.665   c0.425-0.743,0.749-1.298,0.974-1.665c0.164-0.269,0.381-0.438,0.65-0.508s0.539-0.023,0.808,0.141   c0.263,0.16,0.426,0.378,0.489,0.651c0.063,0.274,0.013,0.546-0.151,0.813c-0.224,0.367-0.549,0.922-0.974,1.666   c-0.425,0.742-0.749,1.298-0.974,1.664c-0.351,0.574-0.819,1.272-1.405,2.094c-0.586,0.82-1.055,1.519-1.405,2.093   c-0.168,0.275-0.389,0.446-0.661,0.515s-0.54,0.023-0.803-0.138s-0.426-0.378-0.489-0.651s-0.012-0.549,0.156-0.823   c0.352-0.575,0.82-1.272,1.405-2.094C344.084,523.252,344.553,522.555,344.904,521.98L344.904,521.98z M338.298,510.21   c0.49,0.372,0.563,0.851,0.22,1.435l-1.183,2.056c-0.426,0.729-0.86,1.384-1.302,1.966c-0.121,0.159-0.337,0.423-0.646,0.79   s-0.525,0.63-0.646,0.79c-0.936,1.232-1.175,2.021-0.718,2.368c0.639,0.485,1.537,0.568,2.694,0.251   c1.049-0.292,2.122-0.854,3.22-1.684c0.18-0.215,0.418-0.475,0.713-0.781c0.251-0.259,0.478-0.522,0.682-0.791   c0.13-0.171,0.307-0.44,0.532-0.809c0.226-0.369,0.403-0.639,0.533-0.81c0.195-0.257,0.432-0.405,0.709-0.446   c0.278-0.041,0.54,0.032,0.785,0.219c0.251,0.189,0.394,0.424,0.426,0.7c0.033,0.276-0.048,0.544-0.242,0.8   c-0.13,0.172-0.307,0.442-0.529,0.812c-0.223,0.371-0.398,0.642-0.528,0.812c-0.445,0.588-1.104,1.371-1.978,2.35   s-1.532,1.762-1.978,2.35c-0.139,0.182-0.334,0.461-0.587,0.835c-0.253,0.375-0.448,0.653-0.587,0.836   c-0.187,0.245-0.42,0.385-0.701,0.419c-0.282,0.033-0.543-0.041-0.782-0.223c-0.525-0.398-0.532-0.988-0.021-1.769l0.734-1.021   c-1.929,0.551-3.397,0.443-4.407-0.323c-0.913-0.692-1.244-1.577-0.993-2.654c0.161-0.723,0.629-1.617,1.402-2.685l0.656-0.864   l0.612-0.79c0.359-0.473,0.762-1.131,1.208-1.975c0.447-0.844,0.848-1.499,1.202-1.967c0.19-0.251,0.427-0.394,0.708-0.427   C337.789,509.947,338.053,510.023,338.298,510.21L338.298,510.21z M331.721,505.186c1.26,1.017,2.026,2.153,2.299,3.413   c0.291,1.385-0.069,2.704-1.081,3.958c-1.169,1.45-2.5,2.382-3.993,2.796c-1.627,0.455-3.079,0.168-4.355-0.861   c-0.926-0.747-1.555-1.512-1.889-2.297c-0.408-0.964-0.292-1.845,0.352-2.643c0.449-0.557,1.173-0.811,2.172-0.76   c0.44,0.024,1.283,0.188,2.528,0.493l4.414,1.062c0.062-0.714-0.047-1.376-0.323-1.985s-0.725-1.164-1.343-1.663   c-0.385-0.311-0.896-0.603-1.53-0.875c-0.807-0.347-1.425-0.447-1.854-0.302s-0.754,0.131-0.971-0.045   c-0.195-0.157-0.311-0.371-0.345-0.643s0.027-0.505,0.186-0.7c0.498-0.618,1.427-0.749,2.784-0.39   C329.93,504.055,330.913,504.535,331.721,505.186L331.721,505.186z M325.804,512.986c0.68,0.549,1.458,0.741,2.335,0.578   c0.876-0.162,1.853-0.684,2.93-1.562l-3.552-0.85c-1.404-0.322-2.467-0.477-3.188-0.46   C324.447,511.525,324.939,512.289,325.804,512.986L325.804,512.986z" />
	<path
   id="path3216"
   sodipodi:nodetypes="ccccccccc"
   fill="none"
   d="M438.233,380.838c8.249,4.165,15.141,11.069,18.688,15.91   c4.165,9.478,1.779,13.121,7.323,32.072c7.519,25.729,5.297,33.351,4.041,51.266c-10.721,29.29-18.396,29.363-27.274,38.385   c-9.141,7.377-21.448,10.002-34.598,11.365c-10.923,1.015-21.569,0.919-31.819-0.758c-6.523-1.641-16.261-4.934-24.749-9.85   c-6.297-3.401-15.253-11.246-22.224-16.667" />
	<path
   id="path3229"
   sodipodi:nodetypes="ccccc"
   fill="none"
   d="M305,449.148c0.907-15.876,2.586-30.596,11.786-44.643   c4.792-8.794,10.022-17.37,18.571-24.286c8.192-7.868,17.524-13.079,28.571-14.286c11.521-0.678,18.515-0.224,26.429,0" />
	<path
   id="path3258"
   sodipodi:nodetypes="cc"
   fill="none"
   stroke="#000000"
   d="M365.636,378.974   c2.294,5.966,2.998,11.138,3.409,16.163" />
	<path
   id="path3262"
   sodipodi:nodetypes="cc"
   fill="none"
   stroke="#000000"
   d="M444.651,412.843c3.963,7.3,7.632,7.406,8.582,10.57" />
	<path
   id="path3264"
   sodipodi:nodetypes="cc"
   fill="none"
   stroke="#000000"
   d="M340.899,467.956   c4.469-1.564-12.469,5.98-17.175,7.089" />
	<path
   id="path3266"
   sodipodi:nodetypes="cc"
   fill="none"
   stroke="#000000"
   d="M402.999,495.33   c4.103,11.854,6.228,15.332,7.262,23.834" />
	<path
   id="path3280"
   sodipodi:nodetypes="cc"
   fill="none"
   stroke="#000000"
   d="M378.571,394.683   c-0.711-5.905-1.492-10.88-3.571-16.786" />
	<path
   id="path3282"
   sodipodi:nodetypes="cc"
   fill="none"
   stroke="#000000"
   d="M332.321,457.72   c-3.985,1.506-8.24,4.804-11.785,7.679" />
	<path
   id="path3284"
   sodipodi:nodetypes="ccc"
   fill="none"
   stroke="#000000"
   d="M408.929,490.576   c0.842,10.445,3.334,18.69,5.536,27.322v-0.179" />
	<path
   id="path3286"
   fill="#FFF200"
   stroke="#FFF200"
   d="M320.617,461.848c-0.775-4.661-0.96-6.774-1.057-12.114   c-0.117-6.527,0.213-10.798,1.306-16.849c2.343-12.975,7.603-24.807,15.328-34.479c1.869-2.341,6.509-6.967,8.854-8.829   c4.152-3.297,9.398-6.323,14.018-8.085c2.709-1.034,5.751-1.969,6.041-1.858c0.265,0.102,1.372,3.555,1.987,6.197   c0.421,1.81,0.927,5.118,1.35,8.839c0.662,5.815,1.082,8.101,2.232,12.146c1.37,4.815,2.826,8.454,7.348,18.358   c2.838,6.217,6.31,14.488,6.31,15.032c0,0.347-0.731,0.639-4.464,1.787c-3.864,1.188-5.361,1.566-15.536,3.927   c-4.469,1.036-9.37,2.211-10.893,2.609c-7.99,2.092-14.172,4.482-19.501,7.543c-1.147,0.658-2.537,1.396-3.087,1.641   c-1.987,0.878-6.079,3.534-8.662,5.621c-0.442,0.357-0.889,0.699-0.993,0.759C321.076,464.165,320.869,463.364,320.617,461.848   L320.617,461.848z" />
	<path
   id="path3288"
   fill="#00A3B3"
   stroke="#00A3B3"
   stroke-width="0.1786"
   d="M390.048,519.928   c-10.025-0.814-20.82-4.768-33.38-12.224c-3.492-2.073-14.356-8.915-16.956-10.681c-3.746-2.541-7.361-6.544-10.271-11.37   c-2.043-3.39-5.129-9.888-4.824-10.158c0.089-0.079,1.044-0.444,2.121-0.812c3.199-1.088,11.523-4.562,14.524-6.062   c0.657-0.328,1.857-0.815,2.666-1.082c2.959-0.977,6.147-2.865,11.922-7.062c5.728-4.162,6.394-4.539,13.036-7.376   c8.078-3.45,15.67-6.198,17.118-6.198c0.459,0,2.638,4.139,4.025,7.647c1.63,4.125,2.602,7.61,4.835,17.353   c2.68,11.688,3.785,15.396,6.123,20.535c1.49,3.275,6.202,15.893,7.094,18.996c0.66,2.297,1.215,4.851,1.359,6.262l0.112,1.1   l-2.565,0.396c-1.411,0.218-3.369,0.477-4.352,0.574C400.053,520.025,392.443,520.122,390.048,519.928z" />
	<path
   id="path3290"
   fill="#F9A23E"
   stroke="#F9A23E"
   stroke-width="0.1786"
   d="M414.95,517.384   c-0.435-1.194-3.304-12.973-3.901-16.016c-0.528-2.69-1.117-6.561-1.276-8.394c-0.064-0.736-0.23-1.852-0.37-2.479   s-0.459-2.717-0.709-4.643c-0.904-6.96-2-11.856-4.001-17.879c-1.98-5.959-3.583-9.563-8.277-18.621l-2.293-4.424l1.668-0.777   c4.619-2.152,11.218-3.779,18.454-4.549c4.872-0.518,9.188-0.709,20.804-0.921c10.096-0.184,13.375-0.32,17.548-0.731   c1.156-0.114,2.136-0.174,2.177-0.133c0.12,0.12,0.777,4.169,1.084,6.674c0.387,3.165,0.548,11.96,0.277,15.179   c-0.695,8.309-2.403,15.93-5.141,22.946c-0.979,2.509-3.426,7.601-4.639,9.649c-5.804,9.809-13.132,16.959-22.379,21.835   C420.604,515.881,415.128,517.871,414.95,517.384z" />
	<path
   id="path3292"
   fill="#37B55A"
   stroke="#37B55A"
   stroke-width="0.1786"
   d="M389.086,435.609   c-1.499-3.061-2.61-5.946-3.559-9.241c-1.103-3.832-1.502-5.755-3.251-15.644c-1.208-6.835-2.803-14.934-3.071-15.606   c-0.059-0.147-0.096-0.324-0.082-0.392c0.045-0.227-0.519-4.315-0.882-6.394c-0.501-2.862-1.288-6.173-2.007-8.438l-0.609-1.92   l2.256,0c8.337,0.002,17.472,2.214,28.453,6.891c4.747,2.021,21.503,10.517,24.517,12.43c3.084,1.958,8.018,7.583,11.509,13.123   c4.15,6.585,4.596,7.151,8.548,10.849c0.62,0.58,1.243,1.278,1.384,1.552c0.253,0.489,0.248,0.498-0.323,0.593   c-0.319,0.053-3.192,0.461-6.385,0.908c-20.946,2.934-37.059,6.926-51.78,12.832c-1.617,0.649-3.04,1.18-3.162,1.18   C390.519,438.332,389.82,437.107,389.086,435.609L389.086,435.609z" />
</g>
</svg>